%TF.GenerationSoftware,KiCad,Pcbnew,6.0.2+dfsg-1*%
%TF.CreationDate,2023-08-01T17:34:41-03:00*%
%TF.ProjectId,donatello,646f6e61-7465-46c6-9c6f-2e6b69636164,rev?*%
%TF.SameCoordinates,Original*%
%TF.FileFunction,Legend,Top*%
%TF.FilePolarity,Positive*%
%FSLAX46Y46*%
G04 Gerber Fmt 4.6, Leading zero omitted, Abs format (unit mm)*
G04 Created by KiCad (PCBNEW 6.0.2+dfsg-1) date 2023-08-01 17:34:41*
%MOMM*%
%LPD*%
G01*
G04 APERTURE LIST*
%TA.AperFunction,Profile*%
%ADD10C,0.160000*%
%TD*%
%ADD11C,0.120000*%
G04 APERTURE END LIST*
D10*
X139400328Y-71219670D02*
X139400328Y-150219670D01*
X93456443Y-147867437D02*
G75*
G03*
X93456443Y-147867437I-1550000J0D01*
G01*
X89400328Y-71219670D02*
X139400328Y-71219670D01*
X138439136Y-147875714D02*
G75*
G03*
X138439136Y-147875714I-1550000J0D01*
G01*
X89400328Y-150219670D02*
X89400328Y-71219670D01*
X138440765Y-73714788D02*
G75*
G03*
X138440765Y-73714788I-1550000J0D01*
G01*
X89400328Y-150219670D02*
X139400328Y-150219670D01*
X93439227Y-73723012D02*
G75*
G03*
X93439227Y-73723012I-1550000J0D01*
G01*
D11*
%TO.C,J6*%
X104842000Y-72728000D02*
X122742000Y-72728000D01*
X116712000Y-73125071D02*
X116712000Y-72728000D01*
X114172000Y-73125071D02*
X114172000Y-72728000D01*
X117602000Y-72728000D02*
X117602000Y-70068000D01*
X110872000Y-70068000D02*
X110872000Y-64068000D01*
X111632000Y-73125071D02*
X111632000Y-72728000D01*
X106332000Y-70068000D02*
X106332000Y-64068000D01*
X105792000Y-73058000D02*
X105792000Y-72728000D01*
X109092000Y-73125071D02*
X109092000Y-72728000D01*
X122742000Y-72728000D02*
X122742000Y-70068000D01*
X108332000Y-64068000D02*
X109092000Y-64068000D01*
X106172000Y-75438000D02*
X104902000Y-75438000D01*
X105852000Y-70068000D02*
X105852000Y-64068000D01*
X119252000Y-64068000D02*
X119252000Y-70068000D01*
X121792000Y-73125071D02*
X121792000Y-72728000D01*
X104842000Y-70068000D02*
X104842000Y-72728000D01*
X113412000Y-73125071D02*
X113412000Y-72728000D01*
X107442000Y-72728000D02*
X107442000Y-70068000D01*
X115952000Y-73125071D02*
X115952000Y-72728000D01*
X114172000Y-64068000D02*
X114172000Y-70068000D01*
X109982000Y-72728000D02*
X109982000Y-70068000D01*
X121792000Y-64068000D02*
X121792000Y-70068000D01*
X104902000Y-75438000D02*
X104902000Y-74168000D01*
X113412000Y-64068000D02*
X114172000Y-64068000D01*
X108332000Y-73125071D02*
X108332000Y-72728000D01*
X106092000Y-70068000D02*
X106092000Y-64068000D01*
X115062000Y-72728000D02*
X115062000Y-70068000D01*
X116712000Y-64068000D02*
X116712000Y-70068000D01*
X118492000Y-70068000D02*
X118492000Y-64068000D01*
X118492000Y-64068000D02*
X119252000Y-64068000D01*
X110872000Y-64068000D02*
X111632000Y-64068000D01*
X105792000Y-70068000D02*
X105792000Y-64068000D01*
X115952000Y-70068000D02*
X115952000Y-64068000D01*
X120142000Y-72728000D02*
X120142000Y-70068000D01*
X122742000Y-70068000D02*
X104842000Y-70068000D01*
X106552000Y-73058000D02*
X106552000Y-72728000D01*
X105792000Y-64068000D02*
X106552000Y-64068000D01*
X110872000Y-73125071D02*
X110872000Y-72728000D01*
X118492000Y-73125071D02*
X118492000Y-72728000D01*
X121032000Y-64068000D02*
X121792000Y-64068000D01*
X109092000Y-64068000D02*
X109092000Y-70068000D01*
X119252000Y-73125071D02*
X119252000Y-72728000D01*
X121032000Y-73125071D02*
X121032000Y-72728000D01*
X112522000Y-72728000D02*
X112522000Y-70068000D01*
X105972000Y-70068000D02*
X105972000Y-64068000D01*
X115952000Y-64068000D02*
X116712000Y-64068000D01*
X121032000Y-70068000D02*
X121032000Y-64068000D01*
X113412000Y-70068000D02*
X113412000Y-64068000D01*
X111632000Y-64068000D02*
X111632000Y-70068000D01*
X106212000Y-70068000D02*
X106212000Y-64068000D01*
X106452000Y-70068000D02*
X106452000Y-64068000D01*
X108332000Y-70068000D02*
X108332000Y-64068000D01*
X106552000Y-64068000D02*
X106552000Y-70068000D01*
%TO.C,J3*%
X118812000Y-87630000D02*
X118812000Y-123250000D01*
X118812000Y-87630000D02*
X121472000Y-87630000D01*
X118812000Y-123250000D02*
X121472000Y-123250000D01*
X120142000Y-85030000D02*
X121472000Y-85030000D01*
X121472000Y-85030000D02*
X121472000Y-86360000D01*
X121472000Y-87630000D02*
X121472000Y-123250000D01*
%TO.C,C1*%
X101966000Y-133695000D02*
X101966000Y-133250000D01*
X95726000Y-133695000D02*
X95726000Y-133250000D01*
X101966000Y-135990000D02*
X101966000Y-135545000D01*
X95726000Y-135990000D02*
X95726000Y-135545000D01*
X101966000Y-135990000D02*
X95726000Y-135990000D01*
X101966000Y-133250000D02*
X95726000Y-133250000D01*
%TO.C,U1*%
X126960000Y-137192000D02*
X137200000Y-137192000D01*
X126960000Y-137192000D02*
X126960000Y-141833000D01*
X130230000Y-137192000D02*
X130230000Y-138702000D01*
X133931000Y-137192000D02*
X133931000Y-138702000D01*
X126960000Y-138702000D02*
X137200000Y-138702000D01*
X137200000Y-137192000D02*
X137200000Y-141833000D01*
X126960000Y-141833000D02*
X137200000Y-141833000D01*
%TO.C,J2*%
X103572000Y-123250000D02*
X106232000Y-123250000D01*
X104902000Y-85030000D02*
X106232000Y-85030000D01*
X103572000Y-87630000D02*
X103572000Y-123250000D01*
X103572000Y-87630000D02*
X106232000Y-87630000D01*
X106232000Y-87630000D02*
X106232000Y-123250000D01*
X106232000Y-85030000D02*
X106232000Y-86360000D01*
%TO.C,J4*%
X132095000Y-92262000D02*
X130765000Y-92262000D01*
X130765000Y-92262000D02*
X130765000Y-90932000D01*
X138505000Y-92262000D02*
X138505000Y-89602000D01*
X133365000Y-92262000D02*
X133365000Y-89602000D01*
X133365000Y-89602000D02*
X138505000Y-89602000D01*
X133365000Y-92262000D02*
X138505000Y-92262000D01*
%TO.C,D1*%
X95717000Y-112840000D02*
X95717000Y-112996000D01*
X95717000Y-110524000D02*
X95717000Y-110680000D01*
X96236039Y-112840000D02*
G75*
G03*
X98318130Y-112839837I1040961J1080000D01*
G01*
X98949335Y-110681392D02*
G75*
G03*
X95717000Y-110524484I-1672335J-1078609D01*
G01*
X98318130Y-110680163D02*
G75*
G03*
X96236039Y-110680000I-1041130J-1079837D01*
G01*
X95717000Y-112995516D02*
G75*
G03*
X98949335Y-112838608I1560000J1235517D01*
G01*
%TO.C,C2*%
X128960000Y-113375000D02*
X128960000Y-112930000D01*
X135200000Y-115670000D02*
X128960000Y-115670000D01*
X128960000Y-115670000D02*
X128960000Y-115225000D01*
X135200000Y-115670000D02*
X135200000Y-115225000D01*
X135200000Y-113375000D02*
X135200000Y-112930000D01*
X135200000Y-112930000D02*
X128960000Y-112930000D01*
%TO.C,J5*%
X138505000Y-95310000D02*
X138505000Y-92650000D01*
X133365000Y-95310000D02*
X138505000Y-95310000D01*
X132095000Y-95310000D02*
X130765000Y-95310000D01*
X133365000Y-95310000D02*
X133365000Y-92650000D01*
X130765000Y-95310000D02*
X130765000Y-93980000D01*
X133365000Y-92650000D02*
X138505000Y-92650000D01*
%TO.C,R1*%
X115416000Y-117888000D02*
X115416000Y-124428000D01*
X112676000Y-124428000D02*
X113006000Y-124428000D01*
X115416000Y-124428000D02*
X115086000Y-124428000D01*
X113006000Y-117888000D02*
X112676000Y-117888000D01*
X115086000Y-117888000D02*
X115416000Y-117888000D01*
X112676000Y-117888000D02*
X112676000Y-124428000D01*
%TO.C,J1*%
X93696000Y-141272000D02*
X94696000Y-141272000D01*
X100916000Y-139252000D02*
X100916000Y-140462000D01*
X94196000Y-139252000D02*
X100916000Y-139252000D01*
X93696000Y-140462000D02*
X94196000Y-140462000D01*
X100416000Y-141272000D02*
X100416000Y-142772000D01*
X101416000Y-138752000D02*
X93696000Y-138752000D01*
X93696000Y-138752000D02*
X93696000Y-142772000D01*
X93396000Y-140572000D02*
X93396000Y-143072000D01*
X93696000Y-142772000D02*
X101416000Y-142772000D01*
X100916000Y-140462000D02*
X101416000Y-140462000D01*
X94696000Y-141272000D02*
X94696000Y-142772000D01*
X93396000Y-143072000D02*
X95896000Y-143072000D01*
X101416000Y-141272000D02*
X100416000Y-141272000D01*
X101416000Y-142772000D02*
X101416000Y-138752000D01*
X94196000Y-140462000D02*
X94196000Y-139252000D01*
%TO.C,R2*%
X94642000Y-117888000D02*
X94642000Y-124428000D01*
X97052000Y-117888000D02*
X97382000Y-117888000D01*
X97382000Y-117888000D02*
X97382000Y-124428000D01*
X94972000Y-117888000D02*
X94642000Y-117888000D01*
X94642000Y-124428000D02*
X94972000Y-124428000D01*
X97382000Y-124428000D02*
X97052000Y-124428000D01*
%TO.C,SW1*%
X108510000Y-132370000D02*
X108510000Y-136870000D01*
X115010000Y-136870000D02*
X115010000Y-132370000D01*
X112510000Y-131120000D02*
X111010000Y-131120000D01*
X111010000Y-138120000D02*
X112510000Y-138120000D01*
%TD*%
M02*
